{
	"asset":{
		"generator":"Khronos glTF Blender I/O v3.6.27",
		"version":"2.0"
	},
	"extensionsUsed":[
		"KHR_materials_clearcoat"
	],
	"scene":0,
	"scenes":[
		{
			"name":"Scene",
			"nodes":[
				0,
				1
			]
		}
	],
	"nodes":[
		{
			"mesh":0,
			"name":"Handle",
			"scale":[
				0.15000000596046448,
				1.2300000190734863,
				0.09716510027647018
			],
			"translation":[
				0,
				1.1959896087646484,
				0
			]
		},
		{
			"mesh":1,
			"name":"Head",
			"rotation":[
				0,
				1,
				0,
				0
			],
			"scale":[
				-1,
				-0.12236189842224121,
				-0.21326979994773865
			],
			"translation":[
				-0.5999407768249512,
				2.3244502544403076,
				0
			]
		}
	],
	"materials":[
		{
			"doubleSided":true,
			"extensions":{
				"KHR_materials_clearcoat":{
					"clearcoatFactor":0.668181836605072,
					"clearcoatRoughnessFactor":0.26181817054748535
				}
			},
			"name":"Axe 2 Handle",
			"pbrMetallicRoughness":{
				"baseColorTexture":{
					"index":0
				},
				"metallicFactor":0,
				"roughnessFactor":0.9545454382896423
			}
		},
		{
			"doubleSided":true,
			"name":"Axe 2 Head",
			"pbrMetallicRoughness":{
				"baseColorTexture":{
					"index":1
				},
				"roughnessFactor":0.2545454502105713
			}
		}
	],
	"meshes":[
		{
			"name":"Cylinder",
			"primitives":[
				{
					"attributes":{
						"POSITION":0,
						"NORMAL":1,
						"TEXCOORD_0":2
					},
					"indices":3,
					"material":0
				}
			]
		},
		{
			"name":"Cube.002",
			"primitives":[
				{
					"attributes":{
						"POSITION":4,
						"NORMAL":5,
						"TEXCOORD_0":6
					},
					"indices":7,
					"material":1
				}
			]
		}
	],
	"textures":[
		{
			"sampler":0,
			"source":0
		},
		{
			"sampler":0,
			"source":0
		}
	],
	"images":[
		{
			"bufferView":4,
			"mimeType":"image/png",
			"name":"Axe 2 Texture"
		}
	],
	"accessors":[
		{
			"bufferView":0,
			"componentType":5126,
			"count":272,
			"max":[
				1.000000238418579,
				1.0591622591018677,
				1
			],
			"min":[
				-1,
				-1,
				-1
			],
			"type":"VEC3"
		},
		{
			"bufferView":1,
			"componentType":5126,
			"count":272,
			"type":"VEC3"
		},
		{
			"bufferView":2,
			"componentType":5126,
			"count":272,
			"type":"VEC2"
		},
		{
			"bufferView":3,
			"componentType":5123,
			"count":756,
			"type":"SCALAR"
		},
		{
			"bufferView":5,
			"componentType":5126,
			"count":264,
			"max":[
				0.8667013645172119,
				3.868152141571045,
				0.4771668612957001
			],
			"min":[
				-0.15867023169994354,
				-1.2784162759780884,
				-0.4771668612957001
			],
			"type":"VEC3"
		},
		{
			"bufferView":6,
			"componentType":5126,
			"count":264,
			"type":"VEC3"
		},
		{
			"bufferView":7,
			"componentType":5126,
			"count":264,
			"type":"VEC2"
		},
		{
			"bufferView":8,
			"componentType":5123,
			"count":516,
			"type":"SCALAR"
		}
	],
	"bufferViews":[
		{
			"buffer":0,
			"byteLength":3264,
			"byteOffset":0,
			"target":34962
		},
		{
			"buffer":0,
			"byteLength":3264,
			"byteOffset":3264,
			"target":34962
		},
		{
			"buffer":0,
			"byteLength":2176,
			"byteOffset":6528,
			"target":34962
		},
		{
			"buffer":0,
			"byteLength":1512,
			"byteOffset":8704,
			"target":34963
		},
		{
			"buffer":0,
			"byteLength":1404830,
			"byteOffset":10216
		},
		{
			"buffer":0,
			"byteLength":3168,
			"byteOffset":1415048,
			"target":34962
		},
		{
			"buffer":0,
			"byteLength":3168,
			"byteOffset":1418216,
			"target":34962
		},
		{
			"buffer":0,
			"byteLength":2112,
			"byteOffset":1421384,
			"target":34962
		},
		{
			"buffer":0,
			"byteLength":1032,
			"byteOffset":1423496,
			"target":34963
		}
	],
	"samplers":[
		{
			"magFilter":9729,
			"minFilter":9987
		}
	],
	"buffers":[
		{
			"byteLength":1424528,
			"uri":"data:application/octet-stream;base64,"
		}
	]
}
